<svg width="24" height="24" viewBox="0 0 24 24" fill="none" xmlns="http://www.w3.org/2000/svg">
<path d="M7.3352 0.811184C4.27011 1.80145 0.686306 5.29093 0.214754 7.69585C-0.869817 13.5431 2.19527 17.9285 8.46692 19.579C12.2393 20.5221 14.4085 20.3335 14.4085 19.0603C14.4085 18.2586 13.9841 18.07 11.8149 17.8342C6.01485 17.1741 2.85545 14.4862 2.85545 10.1479C2.85545 5.80964 6.01485 2.93317 11.3906 2.46162C13.9369 2.22584 14.1727 2.08438 14.1727 1.09412C14.1727 0.0566998 13.9841 -0.037611 11.9564 0.00954437C10.6832 0.00954437 8.65555 0.386786 7.3352 0.811184Z" fill="#222222"/>
<path d="M17.7823 17.3155C17.0258 17.9879 16.4375 19.0805 16.4375 19.6689C16.4375 20.9296 19.1271 23.5352 20.4719 23.5352C21.7326 23.5352 24.0019 21.0977 24.0019 19.7529C24.0019 18.2401 21.7326 15.9707 20.2197 15.9707C19.6314 15.9707 18.4547 16.5591 17.7823 17.3155ZM22.3209 18.4082C22.9093 19.5008 22.9093 20.2572 22.3209 20.5934C21.9007 20.8456 21.4805 20.3413 21.4805 19.4167C21.4805 18.4082 20.8921 17.6517 20.2197 17.6517C19.3792 17.6517 18.959 18.4922 18.959 19.921C18.959 21.6861 18.7068 21.9382 18.2025 21.0977C17.1939 19.5848 18.5387 16.8112 20.2197 16.8112C20.8921 16.8112 21.8167 17.5677 22.3209 18.4082ZM20.3878 22.0223C20.1357 22.6947 19.8835 22.4425 19.8835 21.518C19.7995 20.5934 20.0516 20.0891 20.3038 20.4253C20.5559 20.6775 20.64 21.4339 20.3878 22.0223Z" fill="#222222"/>
</svg>
