<svg width="20" height="20" viewBox="0 0 20 20" fill="none" xmlns="http://www.w3.org/2000/svg">
<path d="M6.66602 15.7742C7.67948 16.3593 8.8291 16.6673 9.99935 16.6673C11.1696 16.6673 12.3192 16.3593 13.3327 15.7742C14.3461 15.189 15.1877 14.3474 15.7729 13.334C16.358 12.3205 16.666 11.1709 16.666 10.0007C16.666 8.83041 16.358 7.68078 15.7729 6.66732C15.1877 5.65386 14.3461 4.81227 13.3327 4.22715C12.3192 3.64203 11.1696 3.33398 9.99935 3.33398C8.82911 3.33398 7.67948 3.64203 6.66602 4.22715" stroke="#333333" stroke-width="2"/>
<path d="M1.66602 10.0007L0.885147 9.37596L0.385391 10.0007L0.885147 10.6253L1.66602 10.0007ZM9.16602 11.0007C9.7183 11.0007 10.166 10.5529 10.166 10.0007C10.166 9.44837 9.7183 9.00065 9.16602 9.00065V11.0007ZM4.21848 5.20929L0.885147 9.37596L2.44688 10.6253L5.78022 6.45868L4.21848 5.20929ZM0.885147 10.6253L4.21848 14.792L5.78022 13.5426L2.44688 9.37596L0.885147 10.6253ZM1.66602 11.0007H9.16602V9.00065H1.66602V11.0007Z" fill="#333333"/>
</svg>
